<svg width="26" height="26" viewBox="0 0 26 26" fill="none" xmlns="http://www.w3.org/2000/svg">
    <path d="M12.2891 0.0304693C10.6539 0.233594 9.28789 0.898829 8.15039 2.05156C7.13984 3.07227 6.56094 4.15898 6.26133 5.58594C6.13945 6.18516 6.13945 7.52578 6.26133 8.125C6.56094 9.55195 7.14492 10.6438 8.15039 11.6594C9.17109 12.6902 10.2883 13.2945 11.7305 13.5941C12.3246 13.716 13.6602 13.716 14.2797 13.5941C15.6508 13.3199 16.7883 12.7105 17.8039 11.7051C18.8297 10.6945 19.4391 9.56719 19.7387 8.125C19.8605 7.52578 19.8605 6.18516 19.7387 5.58594C19.5406 4.64648 19.1801 3.77813 18.6621 2.99609C18.3422 2.51367 17.352 1.51836 16.8797 1.20859C16.0621 0.665235 15.1785 0.294532 14.3102 0.126954C13.8988 0.0457036 12.6445 -0.0152339 12.2891 0.0304693ZM14.2187 1.66563C15.2242 1.92969 16.0723 2.40703 16.7629 3.09258C17.4484 3.77813 17.9105 4.60078 18.1949 5.63672C18.3422 6.19023 18.3422 7.5207 18.1949 8.07422C17.9105 9.11016 17.4484 9.93281 16.7629 10.6184C16.0773 11.3039 15.2547 11.766 14.2187 12.0504C13.6652 12.1977 12.3348 12.1977 11.7812 12.0504C10.7453 11.766 9.92266 11.3039 9.23711 10.6184C7.27695 8.65313 7.15 5.54023 8.94766 3.40234C9.72461 2.47813 10.9992 1.76211 12.1875 1.5793C12.6852 1.50313 13.7668 1.54883 14.2187 1.66563Z" fill="#848488"/>
    <path d="M10.273 15.3156C7.42925 15.6609 4.8648 17.2707 3.21441 19.7539C2.24449 21.2062 1.69097 22.9227 1.59449 24.7559C1.56402 25.3195 1.5691 25.3855 1.67066 25.5836C1.74175 25.7258 1.84332 25.8273 1.98043 25.8984C2.17847 26 2.25464 26 13 26C23.7453 26 23.8214 26 24.0195 25.8984C24.1566 25.8273 24.2582 25.7258 24.3292 25.5836C24.4308 25.3855 24.4359 25.3195 24.4054 24.7559C24.2734 22.2523 23.3187 20.0586 21.582 18.2609C19.9367 16.5598 17.814 15.5238 15.4933 15.2852C14.7265 15.209 10.9789 15.2293 10.273 15.3156ZM15.4121 16.8086C18.7789 17.1945 21.6023 19.566 22.5417 22.8059C22.6941 23.3187 22.8515 24.116 22.8515 24.3547V24.4766H13H3.14839V24.3293C3.14839 24.0551 3.3566 23.1004 3.52417 22.5773C4.07769 20.8914 5.13394 19.4391 6.58628 18.3574C7.10425 17.9715 8.25191 17.3824 8.91206 17.1691C9.4148 17.0016 10.0089 16.8746 10.5472 16.8137C11.0652 16.7527 14.8839 16.7527 15.4121 16.8086Z" fill="#848488"/>
    </svg>
    