<svg width="26" height="26" viewBox="0 0 26 26" fill="none" xmlns="http://www.w3.org/2000/svg">
    <path d="M12.1149 0.114796C11.9524 0.180811 11.7341 0.297607 11.6325 0.368702C11.5259 0.439796 8.9614 2.98394 5.92468 6.02065C1.47624 10.4792 0.384444 11.5964 0.277804 11.8097C-0.209697 12.7949 -0.0471965 13.8714 0.699288 14.623C1.16648 15.0851 1.76062 15.3289 2.44109 15.3289H2.7864V19.3914C2.7864 22.1386 2.80671 23.5351 2.84226 23.7179C3.03523 24.6421 3.78171 25.48 4.70593 25.8C5.04109 25.9167 5.06648 25.9167 7.51921 25.9167C9.9364 25.9167 9.99226 25.9167 10.1294 25.8101C10.2055 25.7542 10.3173 25.6425 10.3731 25.5664C10.4798 25.4292 10.4798 25.3632 10.5052 22.0371L10.5305 18.6449L10.6829 18.396C10.8759 18.0863 11.2669 17.8375 11.6427 17.7917C11.7848 17.7714 12.4958 17.7664 13.2219 17.7765L14.5423 17.7917L14.8114 17.939C15.0653 18.0812 15.2278 18.2488 15.3852 18.5281C15.4411 18.6347 15.4614 19.2593 15.4817 22.0421C15.5071 25.3632 15.5071 25.4292 15.6137 25.5664C15.6696 25.6425 15.7813 25.7542 15.8575 25.8101C15.9946 25.9167 16.0505 25.9167 18.4677 25.9167C20.9204 25.9167 20.9458 25.9167 21.2809 25.8C22.2052 25.48 22.9516 24.6421 23.1446 23.7179C23.1802 23.5351 23.2005 22.1386 23.2005 19.3914V15.3289H23.5458C24.5005 15.3289 25.3333 14.821 25.7446 13.9832C25.9173 13.6328 25.9173 13.6226 25.9173 12.9421C25.9173 11.7843 26.5013 12.4699 19.9809 5.95464C13.5012 -0.530127 14.1512 0.0284672 13.0442 0.00307655C12.4704 -0.00708008 12.3841 0.00307655 12.1149 0.114796ZM13.3692 1.56714C13.6688 1.70933 24.2821 12.3378 24.3938 12.5968C24.5005 12.8558 24.4903 13.0742 24.3634 13.3281C24.1755 13.7191 24.018 13.775 23.038 13.8054C22.1188 13.8308 22.0528 13.8511 21.8091 14.1812C21.7024 14.3183 21.7024 14.3742 21.677 18.9242L21.6516 23.53L21.5095 23.7687C21.4333 23.9007 21.2962 24.0683 21.2048 24.1343C20.8493 24.4085 20.7427 24.4187 18.8028 24.4187H17.0052V21.575C17.0052 19.7113 16.9848 18.6449 16.9493 18.4671C16.7512 17.5125 15.9845 16.6898 14.9993 16.38C14.6641 16.2734 14.5524 16.2683 12.9934 16.2683C11.1755 16.2683 11.0841 16.2785 10.4341 16.6085C9.78913 16.9335 9.18992 17.7359 9.03757 18.4671C9.00203 18.6449 8.98171 19.7113 8.98171 21.575V24.4187H7.18406C5.24421 24.4187 5.13757 24.4085 4.7821 24.1343C4.6907 24.0683 4.55359 23.9007 4.47741 23.7687L4.33523 23.53L4.30984 18.9242C4.28445 14.3742 4.28445 14.3183 4.17781 14.1812C3.93406 13.8511 3.86804 13.8308 2.9489 13.8054C1.96882 13.775 1.8114 13.7191 1.62351 13.3281C1.49655 13.0742 1.4864 12.8558 1.59304 12.5968C1.69968 12.3429 12.318 1.71441 12.6126 1.56714C12.8716 1.44019 13.1102 1.44019 13.3692 1.56714Z" fill="#848488"/>
    </svg>
    