<svg width="26" height="26" viewBox="0 0 26 26" fill="none" xmlns="http://www.w3.org/2000/svg">
    <path d="M4.29609 0.101562C3.99141 0.223438 3.74258 0.451954 3.59023 0.761719L3.47852 0.990234V13C3.47852 24.0602 3.48359 25.025 3.56484 25.1926C3.70195 25.5074 3.99141 25.7816 4.29609 25.8984C4.57031 26 4.64141 26 13 26C21.3586 26 21.4297 26 21.7039 25.8984C22.0086 25.7816 22.298 25.5074 22.4352 25.1926C22.5164 25.025 22.5215 24.177 22.5367 14.9551C22.5418 9.425 22.5367 4.81914 22.5215 4.72266C22.4961 4.57031 22.1609 4.21484 20.2973 2.34609C19.0887 1.1375 18.0426 0.111719 17.9664 0.0710945C17.8496 0.0101566 16.8543 0 11.1871 0C4.7582 0.00507927 4.53477 0.0101566 4.29609 0.101562ZM17.3266 2.52383C17.3469 4.3875 17.352 4.41289 17.7125 4.78867C18.073 5.15938 18.0121 5.14922 19.9316 5.17969L21.6582 5.20508L21.6734 14.9449C21.6836 25.5633 21.6988 24.9742 21.4043 25.0859C21.2215 25.157 4.77852 25.157 4.5957 25.0859C4.30117 24.9742 4.31641 25.7359 4.31641 13C4.31641 0.340235 4.30117 1.03086 4.58047 0.914062C4.65156 0.888672 7.28711 0.868361 11.0043 0.868361L17.3113 0.863281L17.3266 2.52383ZM19.6523 2.91992L21.0488 4.31641H19.7488H18.4488L18.327 4.18438C18.2051 4.05742 18.2051 4.04727 18.1898 2.78789C18.1797 2.09219 18.1898 1.52344 18.2152 1.52344C18.2355 1.52344 18.8855 2.15313 19.6523 2.91992Z" fill="#848488"/>
    <path d="M7.34295 7.46483C7.04842 7.58163 6.78944 7.81522 6.63709 8.0996C6.55584 8.25194 6.53045 8.39413 6.53045 8.65819C6.52538 9.06444 6.62694 9.31327 6.891 9.57733C7.13983 9.82616 7.34803 9.91757 7.74412 9.94296C8.05897 9.95819 8.13006 9.94803 8.37889 9.816C9.3285 9.31327 9.31834 7.99804 8.35858 7.50546C8.06912 7.35819 7.64764 7.33788 7.34295 7.46483ZM8.11483 8.40936C8.26717 8.58202 8.25701 8.79022 8.09451 8.9578C7.75936 9.28788 7.22108 8.92225 7.4242 8.50077C7.56131 8.20624 7.89647 8.16562 8.11483 8.40936Z" fill="#848488"/>
    <path d="M10.8164 8.6582V9.08984H15.1582H19.5V8.6582V8.22656H15.1582H10.8164V8.6582Z" fill="#848488"/>
    <path d="M7.55116 11.7406C7.09921 11.8219 6.73866 12.1367 6.57616 12.5886C6.31718 13.325 6.78944 14.1172 7.56132 14.2593C8.59725 14.4472 9.40975 13.4113 8.96796 12.4668C8.71405 11.9133 8.16054 11.6289 7.55116 11.7406ZM8.0996 12.7207C8.43983 13.0558 7.99804 13.589 7.57147 13.3554C7.41405 13.2742 7.33788 13.0254 7.41405 12.8476C7.49022 12.6597 7.59179 12.5988 7.81015 12.5937C7.92186 12.5937 8.01835 12.6344 8.0996 12.7207Z" fill="#848488"/>
    <path d="M10.8367 12.609C10.8215 12.6496 10.8164 12.8477 10.8266 13.0559L10.8418 13.4316L15.1734 13.4469L19.5 13.457V13V12.543H15.1836C11.6137 12.543 10.857 12.5531 10.8367 12.609Z" fill="#848488"/>
    <path d="M7.39377 16.0976C7.00784 16.2144 6.65237 16.6055 6.54573 17.0371C6.28675 18.0731 7.41409 18.977 8.36369 18.4895C9.31838 18.007 9.32853 16.6816 8.38401 16.1891C8.09963 16.0418 7.7137 16.0062 7.39377 16.0976ZM8.09455 17.0422C8.26213 17.2098 8.26721 17.418 8.10471 17.6008C7.88127 17.8649 7.46487 17.7531 7.3887 17.418C7.29729 17.0066 7.79495 16.7426 8.09455 17.0422Z" fill="#848488"/>
    <path d="M10.8164 17.3418V17.7734H15.1582H19.5V17.3418V16.9102H15.1582H10.8164V17.3418Z" fill="#848488"/>
    <path d="M7.34295 20.4648C7.04842 20.5816 6.78944 20.8152 6.63709 21.0996C6.55584 21.2519 6.53045 21.3941 6.53045 21.6582C6.52538 22.0644 6.62694 22.3133 6.891 22.5773C7.13983 22.8262 7.34803 22.9176 7.74412 22.943C8.05897 22.9582 8.13006 22.948 8.37889 22.816C9.3285 22.3133 9.31834 20.998 8.35858 20.5054C8.06912 20.3582 7.64764 20.3379 7.34295 20.4648ZM8.11483 21.4094C8.26717 21.582 8.25701 21.7902 8.09451 21.9578C7.75936 22.2879 7.22108 21.9222 7.4242 21.5008C7.56131 21.2062 7.89647 21.1656 8.11483 21.4094Z" fill="#848488"/>
    <path d="M10.8164 21.6582V22.0898H15.1582H19.5V21.6582V21.2266H15.1582H10.8164V21.6582Z" fill="#848488"/>
    </svg>
    